<?xml version="1.0" encoding="UTF-8" standalone="no"?>
<!DOCTYPE svg PUBLIC "-//W3C//DTD SVG 1.1//EN"
 "http://www.w3.org/Graphics/SVG/1.1/DTD/svg11.dtd">
<!-- Generated by graphviz version 16.1.0 (20260904.0139)
 -->
<!-- Pages: 1 -->
<svg width="1543pt" height="210pt"
 viewBox="0.00 0.00 1543.00 210.00" xmlns="http://www.w3.org/2000/svg" xmlns:xlink="http://www.w3.org/1999/xlink">
<g id="graph0" class="graph" transform="scale(1 1) rotate(0) translate(4 206)">
<polygon fill="white" stroke="none" points="-4,4 -4,-206 1539.25,-206 1539.25,4 -4,4"/>
<!-- 2509681757216 -->
<g id="node1" class="node">
<title>2509681757216</title>
<polygon fill="none" stroke="black" points="1.5,-165.5 1.5,-201.5 196.5,-201.5 196.5,-165.5 1.5,-165.5"/>
<text xml:space="preserve" text-anchor="middle" x="16.25" y="-178.7" font-family="Times New Roman,serif" font-size="14.00">x1</text>
<polyline fill="none" stroke="black" points="31,-166 31,-201.5"/>
<text xml:space="preserve" text-anchor="middle" x="70.88" y="-178.7" font-family="Times New Roman,serif" font-size="14.00">data 2.0000</text>
<polyline fill="none" stroke="black" points="110.75,-166 110.75,-201.5"/>
<text xml:space="preserve" text-anchor="middle" x="153.62" y="-178.7" font-family="Times New Roman,serif" font-size="14.00">grad &#45;1.5000</text>
</g>
<!-- 2509670337424* -->
<g id="node12" class="node">
<title>2509670337424*</title>
<ellipse fill="none" stroke="black" cx="261" cy="-128.5" rx="27" ry="18"/>
<text xml:space="preserve" text-anchor="middle" x="261" y="-123.45" font-family="Times New Roman,serif" font-size="14.00">*</text>
</g>
<!-- 2509681757216&#45;&gt;2509670337424* -->
<g id="edge7" class="edge">
<title>2509681757216&#45;&gt;2509670337424*</title>
<path fill="none" stroke="black" d="M172.12,-165.01C180.9,-162.35 189.7,-159.5 198,-156.5 208.09,-152.86 218.82,-148.27 228.47,-143.88"/>
<polygon fill="black" stroke="black" points="229.86,-147.09 237.45,-139.69 226.9,-140.75 229.86,-147.09"/>
</g>
<!-- 2509681886784 -->
<g id="node2" class="node">
<title>2509681886784</title>
<polygon fill="none" stroke="black" points="698.25,-27.5 698.25,-63.5 882,-63.5 882,-27.5 698.25,-27.5"/>
<text xml:space="preserve" text-anchor="middle" x="709.62" y="-40.7" font-family="Times New Roman,serif" font-size="14.00">b</text>
<polyline fill="none" stroke="black" points="721,-28 721,-63.5"/>
<text xml:space="preserve" text-anchor="middle" x="760.88" y="-40.7" font-family="Times New Roman,serif" font-size="14.00">data 6.8814</text>
<polyline fill="none" stroke="black" points="800.75,-28 800.75,-63.5"/>
<text xml:space="preserve" text-anchor="middle" x="841.38" y="-40.7" font-family="Times New Roman,serif" font-size="14.00">grad 0.5000</text>
</g>
<!-- 2509681456464+ -->
<g id="node7" class="node">
<title>2509681456464+</title>
<ellipse fill="none" stroke="black" cx="981.75" cy="-72.5" rx="27" ry="18"/>
<text xml:space="preserve" text-anchor="middle" x="981.75" y="-67.45" font-family="Times New Roman,serif" font-size="14.00">+</text>
</g>
<!-- 2509681886784&#45;&gt;2509681456464+ -->
<g id="edge8" class="edge">
<title>2509681886784&#45;&gt;2509681456464+</title>
<path fill="none" stroke="black" d="M882.33,-58.49C904.17,-61.6 926.27,-64.74 943.98,-67.26"/>
<polygon fill="black" stroke="black" points="943.32,-70.71 953.71,-68.65 944.3,-63.78 943.32,-70.71"/>
</g>
<!-- 2509676263040 -->
<g id="node3" class="node">
<title>2509676263040</title>
<polygon fill="none" stroke="black" points="661.5,-82.5 661.5,-118.5 918.75,-118.5 918.75,-82.5 661.5,-82.5"/>
<text xml:space="preserve" text-anchor="middle" x="707.38" y="-95.7" font-family="Times New Roman,serif" font-size="14.00">x1w1 + x2w2</text>
<polyline fill="none" stroke="black" points="753.25,-83 753.25,-118.5"/>
<text xml:space="preserve" text-anchor="middle" x="795.38" y="-95.7" font-family="Times New Roman,serif" font-size="14.00">data &#45;6.0000</text>
<polyline fill="none" stroke="black" points="837.5,-83 837.5,-118.5"/>
<text xml:space="preserve" text-anchor="middle" x="878.12" y="-95.7" font-family="Times New Roman,serif" font-size="14.00">grad 0.5000</text>
</g>
<!-- 2509676263040&#45;&gt;2509681456464+ -->
<g id="edge13" class="edge">
<title>2509676263040&#45;&gt;2509681456464+</title>
<path fill="none" stroke="black" d="M916.29,-82.02C926.15,-80.56 935.53,-79.18 943.92,-77.94"/>
<polygon fill="black" stroke="black" points="944.19,-81.44 953.58,-76.51 943.17,-74.51 944.19,-81.44"/>
</g>
<!-- 2509676263040+ -->
<g id="node4" class="node">
<title>2509676263040+</title>
<ellipse fill="none" stroke="black" cx="598.5" cy="-100.5" rx="27" ry="18"/>
<text xml:space="preserve" text-anchor="middle" x="598.5" y="-95.45" font-family="Times New Roman,serif" font-size="14.00">+</text>
</g>
<!-- 2509676263040+&#45;&gt;2509676263040 -->
<g id="edge1" class="edge">
<title>2509676263040+&#45;&gt;2509676263040</title>
<path fill="none" stroke="black" d="M625.87,-100.5C632.88,-100.5 640.96,-100.5 649.7,-100.5"/>
<polygon fill="black" stroke="black" points="649.57,-104 659.57,-100.5 649.57,-97 649.57,-104"/>
</g>
<!-- 2509681886480 -->
<g id="node5" class="node">
<title>2509681886480</title>
<polygon fill="none" stroke="black" points="2.25,-55.5 2.25,-91.5 195.75,-91.5 195.75,-55.5 2.25,-55.5"/>
<text xml:space="preserve" text-anchor="middle" x="18.5" y="-68.7" font-family="Times New Roman,serif" font-size="14.00">w2</text>
<polyline fill="none" stroke="black" points="34.75,-56 34.75,-91.5"/>
<text xml:space="preserve" text-anchor="middle" x="74.62" y="-68.7" font-family="Times New Roman,serif" font-size="14.00">data 1.0000</text>
<polyline fill="none" stroke="black" points="114.5,-56 114.5,-91.5"/>
<text xml:space="preserve" text-anchor="middle" x="155.12" y="-68.7" font-family="Times New Roman,serif" font-size="14.00">grad 0.0000</text>
</g>
<!-- 2509670188448* -->
<g id="node14" class="node">
<title>2509670188448*</title>
<ellipse fill="none" stroke="black" cx="261" cy="-73.5" rx="27" ry="18"/>
<text xml:space="preserve" text-anchor="middle" x="261" y="-68.45" font-family="Times New Roman,serif" font-size="14.00">*</text>
</g>
<!-- 2509681886480&#45;&gt;2509670188448* -->
<g id="edge11" class="edge">
<title>2509681886480&#45;&gt;2509670188448*</title>
<path fill="none" stroke="black" d="M195.84,-73.5C205.14,-73.5 214.15,-73.5 222.32,-73.5"/>
<polygon fill="black" stroke="black" points="222.13,-77 232.13,-73.5 222.13,-70 222.13,-77"/>
</g>
<!-- 2509681456464 -->
<g id="node6" class="node">
<title>2509681456464</title>
<polygon fill="none" stroke="black" points="1044.75,-54.5 1044.75,-90.5 1228.5,-90.5 1228.5,-54.5 1044.75,-54.5"/>
<text xml:space="preserve" text-anchor="middle" x="1056.12" y="-67.7" font-family="Times New Roman,serif" font-size="14.00">n</text>
<polyline fill="none" stroke="black" points="1067.5,-55 1067.5,-90.5"/>
<text xml:space="preserve" text-anchor="middle" x="1107.38" y="-67.7" font-family="Times New Roman,serif" font-size="14.00">data 0.8814</text>
<polyline fill="none" stroke="black" points="1147.25,-55 1147.25,-90.5"/>
<text xml:space="preserve" text-anchor="middle" x="1187.88" y="-67.7" font-family="Times New Roman,serif" font-size="14.00">grad 0.5000</text>
</g>
<!-- 2509681457488tanh -->
<g id="node9" class="node">
<title>2509681457488tanh</title>
<ellipse fill="none" stroke="black" cx="1291.5" cy="-72.5" rx="27" ry="18"/>
<text xml:space="preserve" text-anchor="middle" x="1291.5" y="-67.45" font-family="Times New Roman,serif" font-size="14.00">tanh</text>
</g>
<!-- 2509681456464&#45;&gt;2509681457488tanh -->
<g id="edge14" class="edge">
<title>2509681456464&#45;&gt;2509681457488tanh</title>
<path fill="none" stroke="black" d="M1228.76,-72.5C1237.14,-72.5 1245.27,-72.5 1252.73,-72.5"/>
<polygon fill="black" stroke="black" points="1252.7,-76 1262.7,-72.5 1252.7,-69 1252.7,-76"/>
</g>
<!-- 2509681456464+&#45;&gt;2509681456464 -->
<g id="edge2" class="edge">
<title>2509681456464+&#45;&gt;2509681456464</title>
<path fill="none" stroke="black" d="M1009.03,-72.5C1016.17,-72.5 1024.36,-72.5 1033.07,-72.5"/>
<polygon fill="black" stroke="black" points="1032.81,-76 1042.81,-72.5 1032.81,-69 1032.81,-76"/>
</g>
<!-- 2509681457488 -->
<g id="node8" class="node">
<title>2509681457488</title>
<polygon fill="none" stroke="black" points="1354.5,-54.5 1354.5,-90.5 1535.25,-90.5 1535.25,-54.5 1354.5,-54.5"/>
<text xml:space="preserve" text-anchor="middle" x="1364.38" y="-67.7" font-family="Times New Roman,serif" font-size="14.00"> </text>
<polyline fill="none" stroke="black" points="1374.25,-55 1374.25,-90.5"/>
<text xml:space="preserve" text-anchor="middle" x="1414.12" y="-67.7" font-family="Times New Roman,serif" font-size="14.00">data 0.7071</text>
<polyline fill="none" stroke="black" points="1454,-55 1454,-90.5"/>
<text xml:space="preserve" text-anchor="middle" x="1494.62" y="-67.7" font-family="Times New Roman,serif" font-size="14.00">grad 1.0000</text>
</g>
<!-- 2509681457488tanh&#45;&gt;2509681457488 -->
<g id="edge3" class="edge">
<title>2509681457488tanh&#45;&gt;2509681457488</title>
<path fill="none" stroke="black" d="M1318.87,-72.5C1326.01,-72.5 1334.2,-72.5 1342.89,-72.5"/>
<polygon fill="black" stroke="black" points="1342.61,-76 1352.61,-72.5 1342.61,-69 1342.61,-76"/>
</g>
<!-- 2509676932432 -->
<g id="node10" class="node">
<title>2509676932432</title>
<polygon fill="none" stroke="black" points="3.75,-0.5 3.75,-36.5 194.25,-36.5 194.25,-0.5 3.75,-0.5"/>
<text xml:space="preserve" text-anchor="middle" x="18.5" y="-13.7" font-family="Times New Roman,serif" font-size="14.00">x2</text>
<polyline fill="none" stroke="black" points="33.25,-1 33.25,-36.5"/>
<text xml:space="preserve" text-anchor="middle" x="73.12" y="-13.7" font-family="Times New Roman,serif" font-size="14.00">data 0.0000</text>
<polyline fill="none" stroke="black" points="113,-1 113,-36.5"/>
<text xml:space="preserve" text-anchor="middle" x="153.62" y="-13.7" font-family="Times New Roman,serif" font-size="14.00">grad 0.5000</text>
</g>
<!-- 2509676932432&#45;&gt;2509670188448* -->
<g id="edge12" class="edge">
<title>2509676932432&#45;&gt;2509670188448*</title>
<path fill="none" stroke="black" d="M172.12,-36.99C180.9,-39.65 189.7,-42.5 198,-45.5 208.09,-49.14 218.82,-53.73 228.47,-58.12"/>
<polygon fill="black" stroke="black" points="226.9,-61.25 237.45,-62.31 229.86,-54.91 226.9,-61.25"/>
</g>
<!-- 2509670337424 -->
<g id="node11" class="node">
<title>2509670337424</title>
<polygon fill="none" stroke="black" points="324,-110.5 324,-146.5 535.5,-146.5 535.5,-110.5 324,-110.5"/>
<text xml:space="preserve" text-anchor="middle" x="347" y="-123.7" font-family="Times New Roman,serif" font-size="14.00">x1w1</text>
<polyline fill="none" stroke="black" points="370,-111 370,-146.5"/>
<text xml:space="preserve" text-anchor="middle" x="412.12" y="-123.7" font-family="Times New Roman,serif" font-size="14.00">data &#45;6.0000</text>
<polyline fill="none" stroke="black" points="454.25,-111 454.25,-146.5"/>
<text xml:space="preserve" text-anchor="middle" x="494.88" y="-123.7" font-family="Times New Roman,serif" font-size="14.00">grad 0.5000</text>
</g>
<!-- 2509670337424&#45;&gt;2509676263040+ -->
<g id="edge6" class="edge">
<title>2509670337424&#45;&gt;2509676263040+</title>
<path fill="none" stroke="black" d="M535.88,-110.85C544.59,-109.38 552.96,-107.98 560.56,-106.7"/>
<polygon fill="black" stroke="black" points="561.06,-110.17 570.34,-105.06 559.9,-103.26 561.06,-110.17"/>
</g>
<!-- 2509670337424*&#45;&gt;2509670337424 -->
<g id="edge4" class="edge">
<title>2509670337424*&#45;&gt;2509670337424</title>
<path fill="none" stroke="black" d="M288.42,-128.5C295.52,-128.5 303.68,-128.5 312.42,-128.5"/>
<polygon fill="black" stroke="black" points="312.24,-132 322.24,-128.5 312.24,-125 312.24,-132"/>
</g>
<!-- 2509670188448 -->
<g id="node13" class="node">
<title>2509670188448</title>
<polygon fill="none" stroke="black" points="326.25,-55.5 326.25,-91.5 533.25,-91.5 533.25,-55.5 326.25,-55.5"/>
<text xml:space="preserve" text-anchor="middle" x="349.25" y="-68.7" font-family="Times New Roman,serif" font-size="14.00">x2w2</text>
<polyline fill="none" stroke="black" points="372.25,-56 372.25,-91.5"/>
<text xml:space="preserve" text-anchor="middle" x="412.12" y="-68.7" font-family="Times New Roman,serif" font-size="14.00">data 0.0000</text>
<polyline fill="none" stroke="black" points="452,-56 452,-91.5"/>
<text xml:space="preserve" text-anchor="middle" x="492.62" y="-68.7" font-family="Times New Roman,serif" font-size="14.00">grad 0.5000</text>
</g>
<!-- 2509670188448&#45;&gt;2509676263040+ -->
<g id="edge10" class="edge">
<title>2509670188448&#45;&gt;2509676263040+</title>
<path fill="none" stroke="black" d="M533.51,-90.14C543.16,-91.7 552.45,-93.21 560.82,-94.56"/>
<polygon fill="black" stroke="black" points="560.05,-97.98 570.48,-96.12 561.16,-91.07 560.05,-97.98"/>
</g>
<!-- 2509670188448*&#45;&gt;2509670188448 -->
<g id="edge5" class="edge">
<title>2509670188448*&#45;&gt;2509670188448</title>
<path fill="none" stroke="black" d="M288.42,-73.5C296.08,-73.5 304.96,-73.5 314.47,-73.5"/>
<polygon fill="black" stroke="black" points="314.37,-77 324.37,-73.5 314.37,-70 314.37,-77"/>
</g>
<!-- 2509676933072 -->
<g id="node15" class="node">
<title>2509676933072</title>
<polygon fill="none" stroke="black" points="0,-110.5 0,-146.5 198,-146.5 198,-110.5 0,-110.5"/>
<text xml:space="preserve" text-anchor="middle" x="16.25" y="-123.7" font-family="Times New Roman,serif" font-size="14.00">w1</text>
<polyline fill="none" stroke="black" points="32.5,-111 32.5,-146.5"/>
<text xml:space="preserve" text-anchor="middle" x="74.62" y="-123.7" font-family="Times New Roman,serif" font-size="14.00">data &#45;3.0000</text>
<polyline fill="none" stroke="black" points="116.75,-111 116.75,-146.5"/>
<text xml:space="preserve" text-anchor="middle" x="157.38" y="-123.7" font-family="Times New Roman,serif" font-size="14.00">grad 1.0000</text>
</g>
<!-- 2509676933072&#45;&gt;2509670337424* -->
<g id="edge9" class="edge">
<title>2509676933072&#45;&gt;2509670337424*</title>
<path fill="none" stroke="black" d="M198.14,-128.5C206.61,-128.5 214.8,-128.5 222.29,-128.5"/>
<polygon fill="black" stroke="black" points="222.29,-132 232.29,-128.5 222.29,-125 222.29,-132"/>
</g>
</g>
</svg>
